<svg width="333" height="48" viewBox="0 0 333 48" fill="none" xmlns="http://www.w3.org/2000/svg">
<path d="M0.5 0.5H286.288L331.819 47.5H0.5V0.5Z" fill="white" stroke="black"/>
<rect x="4" y="7.33337" width="3.33333" height="3.33333" fill="black"/>
<rect x="7.33398" y="7.33337" width="3.33333" height="3.33333" fill="black"/>
<rect x="40.666" y="7.33337" width="3.33333" height="3.33333" fill="black"/>
<rect x="40.666" y="4" width="3.33333" height="3.33333" transform="rotate(90 40.666 4)" fill="black"/>
<rect x="44" y="40.6666" width="3.33333" height="3.33333" transform="rotate(90 44 40.6666)" fill="black"/>
<rect x="24" y="10.6666" width="3.33333" height="3.33333" fill="black"/>
<rect x="4" y="20.6666" width="3.33333" height="3.33333" fill="black"/>
<rect x="40.666" y="20.6666" width="3.33333" height="3.33333" fill="black"/>
<rect x="27.334" y="4" width="3.33333" height="3.33333" transform="rotate(90 27.334 4)" fill="black"/>
<rect x="30.666" y="40.6666" width="3.33333" height="3.33333" transform="rotate(90 30.666 40.6666)" fill="black"/>
<rect x="24" y="24" width="3.33333" height="3.33333" fill="black"/>
<rect x="4" y="14" width="3.33333" height="3.33333" fill="black"/>
<rect x="40.666" y="14" width="3.33333" height="3.33333" fill="black"/>
<rect x="37.334" y="10.6666" width="3.33333" height="3.33333" fill="black"/>
<rect x="34" y="4" width="3.33333" height="3.33333" transform="rotate(90 34 4)" fill="black"/>
<rect x="37.334" y="7.33337" width="3.33333" height="3.33333" transform="rotate(90 37.334 7.33337)" fill="black"/>
<rect x="37.334" y="40.6666" width="3.33333" height="3.33333" transform="rotate(90 37.334 40.6666)" fill="black"/>
<rect x="24" y="17.3334" width="3.33333" height="3.33333" fill="black"/>
<rect x="4" y="27.3334" width="3.33333" height="3.33333" fill="black"/>
<rect x="7.33398" y="27.3334" width="3.33333" height="3.33333" fill="black"/>
<rect x="40.666" y="27.3334" width="3.33333" height="3.33333" fill="black"/>
<rect x="20.666" y="4" width="3.33333" height="3.33333" transform="rotate(90 20.666 4)" fill="black"/>
<rect x="14" y="4" width="3.33333" height="3.33333" transform="rotate(90 14 4)" fill="black"/>
<rect x="24" y="40.6666" width="3.33333" height="3.33333" transform="rotate(90 24 40.6666)" fill="black"/>
<rect x="4" y="37.3334" width="3.33333" height="3.33333" fill="black"/>
<rect x="14" y="40.6666" width="3.33333" height="3.33333" transform="rotate(90 14 40.6666)" fill="black"/>
<rect x="14" y="37.3334" width="3.33333" height="3.33333" transform="rotate(90 14 37.3334)" fill="black"/>
<rect x="10.666" y="34" width="3.33333" height="3.33333" transform="rotate(90 10.666 34)" fill="black"/>
<rect x="37.334" y="34.25" width="3.33333" height="3.33333" transform="rotate(90 37.334 34.25)" fill="black"/>
<rect x="34" y="37.3334" width="3.33333" height="3.33333" transform="rotate(90 34 37.3334)" fill="black"/>
<rect x="10.666" y="40.6666" width="3.33333" height="3.33333" transform="rotate(90 10.666 40.6666)" fill="black"/>
<rect x="24" y="30.6666" width="3.33333" height="3.33333" fill="black"/>
<rect x="27.334" y="27.3334" width="3.33333" height="3.33333" fill="black"/>
<rect x="30.666" y="14" width="3.33333" height="3.33333" fill="black"/>
<rect x="30.666" y="24" width="3.33333" height="3.33333" fill="black"/>
<rect x="30.666" y="20.6666" width="3.33333" height="3.33333" fill="black"/>
<rect x="30.666" y="17.3334" width="3.33333" height="3.33333" fill="black"/>
<rect x="4" y="10.6666" width="3.33333" height="3.33333" fill="black"/>
<rect x="10.666" y="10.6666" width="3.33333" height="3.33333" fill="black"/>
<rect x="7.33398" y="14" width="3.33333" height="3.33333" fill="black"/>
<rect x="14" y="7.33337" width="3.33333" height="3.33333" fill="black"/>
<rect x="40.666" y="40.6666" width="3.33333" height="3.33333" transform="rotate(90 40.666 40.6666)" fill="black"/>
<rect x="40.666" y="37.5834" width="3.33333" height="3.33333" transform="rotate(90 40.666 37.5834)" fill="black"/>
<rect x="24" y="14" width="3.33333" height="3.33333" fill="black"/>
<rect x="4" y="24" width="3.33333" height="3.33333" fill="black"/>
<rect x="27.334" y="40.6666" width="3.33333" height="3.33333" transform="rotate(90 27.334 40.6666)" fill="black"/>
<rect x="4" y="34" width="3.33333" height="3.33333" fill="black"/>
<rect x="40.666" y="34" width="3.33333" height="3.33333" fill="black"/>
<rect x="7.33398" y="4" width="3.33333" height="3.33333" transform="rotate(90 7.33398 4)" fill="black"/>
<rect x="17.334" y="40.6666" width="3.33333" height="3.33333" transform="rotate(90 17.334 40.6666)" fill="black"/>
<rect x="20.666" y="37.3334" width="3.33333" height="3.33333" transform="rotate(90 20.666 37.3334)" fill="black"/>
<rect x="24" y="37.3334" width="3.33333" height="3.33333" transform="rotate(90 24 37.3334)" fill="black"/>
<rect x="24" y="27.3334" width="3.33333" height="3.33333" fill="black"/>
<rect x="20.666" y="27.3334" width="3.33333" height="3.33333" fill="black"/>
<rect x="17.334" y="24" width="3.33333" height="3.33333" fill="black"/>
<rect x="17.334" y="20.6666" width="3.33333" height="3.33333" fill="black"/>
<rect x="17.334" y="17.3334" width="3.33333" height="3.33333" fill="black"/>
<rect x="4" y="17.3334" width="3.33333" height="3.33333" fill="black"/>
<rect x="34" y="40.6666" width="3.33333" height="3.33333" transform="rotate(90 34 40.6666)" fill="black"/>
<rect x="40.666" y="30.75" width="3.33333" height="3.33333" transform="rotate(90 40.666 30.75)" fill="black"/>
<rect x="24" y="20.6666" width="3.33333" height="3.33333" fill="black"/>
<rect x="4" y="30.6666" width="3.33333" height="3.33333" fill="black"/>
<rect x="10.666" y="30.6666" width="3.33333" height="3.33333" fill="black"/>
<rect x="14" y="34" width="3.33333" height="3.33333" fill="black"/>
<rect x="20.666" y="40.6666" width="3.33333" height="3.33333" transform="rotate(90 20.666 40.6666)" fill="black"/>
<rect x="4" y="40.6666" width="3.33333" height="3.33333" fill="black"/>
<rect x="24" y="34" width="3.33333" height="3.33333" fill="black"/>
<rect x="24" y="37.3334" width="3.33333" height="3.33333" fill="black"/>
<path d="M63.5682 6.39205V4.36364H73.125V6.39205H69.5625V16H67.1307V6.39205H63.5682ZM77.0739 10.9545V16H74.6534V4.36364H77.0057V8.8125H77.108C77.3049 8.29735 77.6231 7.89394 78.0625 7.60227C78.5019 7.30682 79.053 7.15909 79.7159 7.15909C80.322 7.15909 80.8504 7.29167 81.3011 7.55682C81.7557 7.81818 82.108 8.19508 82.358 8.6875C82.6117 9.17614 82.7367 9.76136 82.733 10.4432V16H80.3125V10.875C80.3163 10.3371 80.1799 9.91856 79.9034 9.61932C79.6307 9.32008 79.2481 9.17045 78.7557 9.17045C78.4261 9.17045 78.1345 9.24053 77.8807 9.38068C77.6307 9.52083 77.4337 9.72538 77.2898 9.99432C77.1496 10.2595 77.0777 10.5795 77.0739 10.9545ZM88.6151 16.1705C87.7173 16.1705 86.9446 15.9886 86.2969 15.625C85.6529 15.2576 85.1567 14.7386 84.8082 14.0682C84.4598 13.3939 84.2855 12.5966 84.2855 11.6761C84.2855 10.7784 84.4598 9.99053 84.8082 9.3125C85.1567 8.63447 85.6473 8.10606 86.2798 7.72727C86.9162 7.34848 87.6624 7.15909 88.5185 7.15909C89.0942 7.15909 89.6302 7.25189 90.1264 7.4375C90.6264 7.61932 91.062 7.89394 91.4332 8.26136C91.8082 8.62879 92.0999 9.09091 92.3082 9.64773C92.5166 10.2008 92.6207 10.8485 92.6207 11.5909V12.2557H85.2514V10.7557H90.3423C90.3423 10.4072 90.2666 10.0985 90.1151 9.82955C89.9635 9.56061 89.7533 9.35038 89.4844 9.19886C89.2192 9.04356 88.9105 8.96591 88.5582 8.96591C88.1908 8.96591 87.8651 9.05114 87.581 9.22159C87.3007 9.38826 87.081 9.61364 86.9219 9.89773C86.7628 10.178 86.6813 10.4905 86.6776 10.8352V12.2614C86.6776 12.6932 86.7571 13.0663 86.9162 13.3807C87.0791 13.6951 87.3082 13.9375 87.6037 14.108C87.8991 14.2784 88.2495 14.3636 88.6548 14.3636C88.9238 14.3636 89.17 14.3258 89.3935 14.25C89.617 14.1742 89.8082 14.0606 89.9673 13.9091C90.1264 13.7576 90.2476 13.572 90.331 13.3523L92.5696 13.5C92.456 14.0379 92.223 14.5076 91.8707 14.9091C91.5223 15.3068 91.0715 15.6174 90.5185 15.8409C89.9692 16.0606 89.3348 16.1705 88.6151 16.1705ZM97.9489 16V4.36364H102.54C103.422 4.36364 104.174 4.5322 104.795 4.86932C105.417 5.20265 105.89 5.66667 106.216 6.26136C106.545 6.85227 106.71 7.53409 106.71 8.30682C106.71 9.07955 106.544 9.76136 106.21 10.3523C105.877 10.9432 105.394 11.4034 104.761 11.733C104.133 12.0625 103.371 12.2273 102.477 12.2273H99.5511V10.2557H102.08C102.553 10.2557 102.943 10.1742 103.25 10.0114C103.561 9.8447 103.792 9.61553 103.943 9.32386C104.098 9.02841 104.176 8.68939 104.176 8.30682C104.176 7.92045 104.098 7.58333 103.943 7.29545C103.792 7.00379 103.561 6.77841 103.25 6.61932C102.939 6.45644 102.545 6.375 102.068 6.375H100.409V16H97.9489ZM110.683 4.36364V16H108.263V4.36364H110.683ZM115.111 16.1648C114.554 16.1648 114.058 16.0682 113.622 15.875C113.187 15.678 112.842 15.3883 112.588 15.0057C112.338 14.6193 112.213 14.1383 112.213 13.5625C112.213 13.0777 112.302 12.6705 112.48 12.3409C112.658 12.0114 112.901 11.7462 113.207 11.5455C113.514 11.3447 113.863 11.1932 114.253 11.0909C114.647 10.9886 115.06 10.9167 115.491 10.875C115.999 10.822 116.408 10.7727 116.719 10.7273C117.029 10.678 117.255 10.6061 117.395 10.5114C117.535 10.4167 117.605 10.2765 117.605 10.0909V10.0568C117.605 9.69697 117.491 9.41856 117.264 9.22159C117.041 9.02462 116.723 8.92614 116.31 8.92614C115.874 8.92614 115.527 9.02273 115.27 9.21591C115.012 9.4053 114.842 9.64394 114.759 9.93182L112.52 9.75C112.634 9.2197 112.857 8.76136 113.19 8.375C113.524 7.98485 113.954 7.68561 114.48 7.47727C115.01 7.26515 115.624 7.15909 116.321 7.15909C116.806 7.15909 117.27 7.21591 117.713 7.32955C118.16 7.44318 118.556 7.61932 118.901 7.85795C119.249 8.09659 119.524 8.40341 119.724 8.77841C119.925 9.14962 120.026 9.5947 120.026 10.1136V16H117.73V14.7898H117.662C117.522 15.0625 117.334 15.303 117.099 15.5114C116.865 15.7159 116.582 15.8769 116.253 15.9943C115.923 16.108 115.543 16.1648 115.111 16.1648ZM115.804 14.4943C116.16 14.4943 116.474 14.4242 116.747 14.2841C117.02 14.1402 117.234 13.947 117.389 13.7045C117.545 13.4621 117.622 13.1875 117.622 12.8807V11.9545C117.546 12.0038 117.442 12.0492 117.31 12.0909C117.181 12.1288 117.035 12.1648 116.872 12.1989C116.709 12.2292 116.546 12.2576 116.384 12.2841C116.221 12.3068 116.073 12.3277 115.94 12.3466C115.656 12.3883 115.408 12.4545 115.196 12.5455C114.984 12.6364 114.819 12.7595 114.702 12.9148C114.584 13.0663 114.526 13.2557 114.526 13.483C114.526 13.8125 114.645 14.0644 114.884 14.2386C115.126 14.4091 115.433 14.4943 115.804 14.4943ZM124.324 10.9545V16H121.903V7.27273H124.21V8.8125H124.312C124.506 8.30492 124.83 7.90341 125.284 7.60795C125.739 7.30871 126.29 7.15909 126.938 7.15909C127.544 7.15909 128.072 7.29167 128.523 7.55682C128.973 7.82197 129.324 8.20076 129.574 8.69318C129.824 9.18182 129.949 9.76515 129.949 10.4432V16H127.528V10.875C127.532 10.3409 127.396 9.92424 127.119 9.625C126.843 9.32197 126.462 9.17045 125.977 9.17045C125.652 9.17045 125.364 9.24053 125.114 9.38068C124.867 9.52083 124.674 9.72538 124.534 9.99432C124.398 10.2595 124.328 10.5795 124.324 10.9545ZM136.499 7.27273V9.09091H131.243V7.27273H136.499ZM132.436 5.18182H134.857V13.3182C134.857 13.5417 134.891 13.7159 134.959 13.8409C135.027 13.9621 135.122 14.0473 135.243 14.0966C135.368 14.1458 135.512 14.1705 135.675 14.1705C135.788 14.1705 135.902 14.161 136.016 14.142C136.129 14.1193 136.216 14.1023 136.277 14.0909L136.658 15.892C136.536 15.9299 136.366 15.9735 136.146 16.0227C135.927 16.0758 135.66 16.108 135.345 16.1193C134.762 16.142 134.25 16.0644 133.811 15.8864C133.375 15.7083 133.036 15.4318 132.794 15.0568C132.552 14.6818 132.432 14.2083 132.436 13.6364V5.18182ZM141.824 16V4.36364H144.284V13.9716H149.273V16H141.824ZM150.857 16V7.27273H153.277V16H150.857ZM152.072 6.14773C151.713 6.14773 151.404 6.02841 151.146 5.78977C150.893 5.54735 150.766 5.25758 150.766 4.92045C150.766 4.58712 150.893 4.30114 151.146 4.0625C151.404 3.82008 151.713 3.69886 152.072 3.69886C152.432 3.69886 152.739 3.82008 152.993 4.0625C153.25 4.30114 153.379 4.58712 153.379 4.92045C153.379 5.25758 153.25 5.54735 152.993 5.78977C152.739 6.02841 152.432 6.14773 152.072 6.14773ZM155.261 16V4.36364H157.682V8.73864H157.756C157.862 8.50379 158.015 8.26515 158.216 8.02273C158.42 7.77652 158.686 7.57197 159.011 7.40909C159.341 7.24242 159.75 7.15909 160.239 7.15909C160.875 7.15909 161.462 7.32576 162 7.65909C162.538 7.98864 162.968 8.48674 163.29 9.15341C163.612 9.81629 163.773 10.6477 163.773 11.6477C163.773 12.6212 163.616 13.4432 163.301 14.1136C162.991 14.7803 162.566 15.286 162.028 15.6307C161.494 15.9716 160.896 16.142 160.233 16.142C159.763 16.142 159.364 16.0644 159.034 15.9091C158.708 15.7538 158.441 15.5587 158.233 15.3239C158.025 15.0852 157.866 14.8447 157.756 14.6023H157.648V16H155.261ZM157.631 11.6364C157.631 12.1553 157.703 12.608 157.847 12.9943C157.991 13.3807 158.199 13.6818 158.472 13.8977C158.744 14.1098 159.076 14.2159 159.466 14.2159C159.86 14.2159 160.193 14.108 160.466 13.892C160.739 13.6723 160.945 13.3693 161.085 12.983C161.229 12.5928 161.301 12.1439 161.301 11.6364C161.301 11.1326 161.231 10.6894 161.091 10.3068C160.951 9.92424 160.744 9.625 160.472 9.40909C160.199 9.19318 159.864 9.08523 159.466 9.08523C159.072 9.08523 158.739 9.18939 158.466 9.39773C158.197 9.60606 157.991 9.90151 157.847 10.2841C157.703 10.6667 157.631 11.1174 157.631 11.6364ZM165.388 16V7.27273H167.734V8.79545H167.825C167.984 8.25379 168.251 7.8447 168.626 7.56818C169.001 7.28788 169.433 7.14773 169.922 7.14773C170.043 7.14773 170.174 7.1553 170.314 7.17045C170.454 7.18561 170.577 7.20644 170.683 7.23295V9.38068C170.57 9.34659 170.412 9.31629 170.212 9.28977C170.011 9.26326 169.827 9.25 169.661 9.25C169.304 9.25 168.986 9.32765 168.706 9.48295C168.429 9.63447 168.21 9.84659 168.047 10.1193C167.888 10.392 167.808 10.7064 167.808 11.0625V16H165.388ZM174.173 16.1648C173.616 16.1648 173.12 16.0682 172.685 15.875C172.249 15.678 171.904 15.3883 171.651 15.0057C171.401 14.6193 171.276 14.1383 171.276 13.5625C171.276 13.0777 171.365 12.6705 171.543 12.3409C171.721 12.0114 171.963 11.7462 172.27 11.5455C172.577 11.3447 172.925 11.1932 173.315 11.0909C173.709 10.9886 174.122 10.9167 174.554 10.875C175.062 10.822 175.471 10.7727 175.781 10.7273C176.092 10.678 176.317 10.6061 176.457 10.5114C176.598 10.4167 176.668 10.2765 176.668 10.0909V10.0568C176.668 9.69697 176.554 9.41856 176.327 9.22159C176.103 9.02462 175.785 8.92614 175.372 8.92614C174.937 8.92614 174.59 9.02273 174.332 9.21591C174.075 9.4053 173.904 9.64394 173.821 9.93182L171.582 9.75C171.696 9.2197 171.92 8.76136 172.253 8.375C172.586 7.98485 173.016 7.68561 173.543 7.47727C174.073 7.26515 174.687 7.15909 175.384 7.15909C175.868 7.15909 176.332 7.21591 176.776 7.32955C177.223 7.44318 177.618 7.61932 177.963 7.85795C178.312 8.09659 178.586 8.40341 178.787 8.77841C178.988 9.14962 179.088 9.5947 179.088 10.1136V16H176.793V14.7898H176.724C176.584 15.0625 176.397 15.303 176.162 15.5114C175.927 15.7159 175.645 15.8769 175.315 15.9943C174.986 16.108 174.605 16.1648 174.173 16.1648ZM174.866 14.4943C175.223 14.4943 175.537 14.4242 175.81 14.2841C176.082 14.1402 176.296 13.947 176.452 13.7045C176.607 13.4621 176.685 13.1875 176.685 12.8807V11.9545C176.609 12.0038 176.505 12.0492 176.372 12.0909C176.243 12.1288 176.098 12.1648 175.935 12.1989C175.772 12.2292 175.609 12.2576 175.446 12.2841C175.283 12.3068 175.135 12.3277 175.003 12.3466C174.719 12.3883 174.471 12.4545 174.259 12.5455C174.046 12.6364 173.882 12.7595 173.764 12.9148C173.647 13.0663 173.588 13.2557 173.588 13.483C173.588 13.8125 173.707 14.0644 173.946 14.2386C174.188 14.4091 174.495 14.4943 174.866 14.4943ZM180.966 16V7.27273H183.312V8.79545H183.403C183.563 8.25379 183.83 7.8447 184.205 7.56818C184.58 7.28788 185.011 7.14773 185.5 7.14773C185.621 7.14773 185.752 7.1553 185.892 7.17045C186.032 7.18561 186.155 7.20644 186.261 7.23295V9.38068C186.148 9.34659 185.991 9.31629 185.79 9.28977C185.589 9.26326 185.405 9.25 185.239 9.25C184.883 9.25 184.564 9.32765 184.284 9.48295C184.008 9.63447 183.788 9.84659 183.625 10.1193C183.466 10.392 183.386 10.7064 183.386 11.0625V16H180.966ZM189.273 19.2727C188.966 19.2727 188.678 19.2481 188.409 19.1989C188.144 19.1534 187.924 19.0947 187.75 19.0227L188.295 17.2159C188.58 17.303 188.835 17.3504 189.062 17.358C189.294 17.3655 189.492 17.3125 189.659 17.1989C189.83 17.0852 189.968 16.892 190.074 16.6193L190.216 16.25L187.085 7.27273H189.631L191.438 13.6818H191.528L193.352 7.27273H195.915L192.523 16.9432C192.36 17.4129 192.138 17.822 191.858 18.1705C191.581 18.5227 191.231 18.7936 190.807 18.983C190.383 19.1761 189.871 19.2727 189.273 19.2727Z" fill="black"/>
<path d="M70 23.5C69.974 23.2318 69.9141 22.9818 69.8203 22.75C69.7266 22.5156 69.5951 22.3112 69.4258 22.1367C69.2565 21.9622 69.0469 21.8255 68.7969 21.7266C68.5495 21.6276 68.2578 21.5781 67.9219 21.5781C67.4245 21.5781 66.9427 21.7096 66.4766 21.9727C66.013 22.2357 65.6107 22.6224 65.2695 23.1328C64.931 23.6406 64.7005 24.263 64.5781 25C64.4583 25.7214 64.4701 26.3372 64.6133 26.8477C64.7565 27.3581 65.0104 27.7487 65.375 28.0195C65.7396 28.2878 66.194 28.4219 66.7383 28.4219C67.2279 28.4219 67.6836 28.3125 68.1055 28.0937C68.5273 27.8724 68.8828 27.5586 69.1719 27.1523C69.4609 26.7461 69.6484 26.2643 69.7344 25.707L69.9531 25.7812H67.3906L67.5117 25.125H70.5469L70.4258 25.7812C70.3164 26.4661 70.0833 27.0573 69.7266 27.5547C69.3698 28.0521 68.9271 28.4362 68.3984 28.707C67.8698 28.9753 67.2943 29.1094 66.6719 29.1094C65.974 29.1094 65.3906 28.9414 64.9219 28.6055C64.4557 28.2669 64.1289 27.7904 63.9414 27.1758C63.7539 26.5612 63.7305 25.8359 63.8711 25C63.9701 24.3724 64.1445 23.806 64.3945 23.3008C64.6445 22.7956 64.9518 22.3646 65.3164 22.0078C65.6836 21.6484 66.0924 21.3724 66.543 21.1797C66.9961 20.987 67.4753 20.8906 67.9805 20.8906C68.418 20.8906 68.8073 20.9596 69.1484 21.0977C69.4896 21.2357 69.7786 21.4258 70.0156 21.668C70.2526 21.9076 70.4323 22.1849 70.5547 22.5C70.6797 22.8125 70.7448 23.1458 70.75 23.5H70ZM71.5713 29L72.5713 23H73.2471L73.0908 23.9219H73.1416C73.3083 23.6198 73.557 23.3763 73.8877 23.1914C74.221 23.0039 74.5765 22.9102 74.9541 22.9102C75.0114 22.9102 75.0752 22.9115 75.1455 22.9141C75.2158 22.9141 75.2744 22.9167 75.3213 22.9219L75.2002 23.6289C75.1689 23.6237 75.1143 23.6159 75.0361 23.6055C74.9606 23.5951 74.876 23.5898 74.7822 23.5898C74.4697 23.5898 74.1807 23.6562 73.915 23.7891C73.652 23.9193 73.4307 24.1003 73.251 24.332C73.0739 24.5638 72.9593 24.8281 72.9072 25.125L72.2666 29H71.5713ZM77.6797 29.125C77.1536 29.125 76.7109 28.9922 76.3516 28.7266C75.9922 28.4583 75.7383 28.0872 75.5898 27.6133C75.4414 27.1393 75.4167 26.5924 75.5156 25.9727C75.6146 25.3685 75.8112 24.8372 76.1055 24.3789C76.4023 23.918 76.7669 23.5599 77.1992 23.3047C77.6315 23.0469 78.1016 22.918 78.6094 22.918C79.138 22.918 79.5807 23.0521 79.9375 23.3203C80.2969 23.5885 80.5508 23.9596 80.6992 24.4336C80.8503 24.9076 80.8763 25.4557 80.7773 26.0781C80.6784 26.6797 80.4805 27.2096 80.1836 27.668C79.8867 28.1237 79.5221 28.4805 79.0898 28.7383C78.6602 28.9961 78.1901 29.125 77.6797 29.125ZM77.6875 28.4883C78.1146 28.4883 78.4948 28.375 78.8281 28.1484C79.1641 27.9193 79.4414 27.6146 79.6602 27.2344C79.8789 26.8516 80.026 26.431 80.1016 25.9727C80.1719 25.5352 80.1641 25.1328 80.0781 24.7656C79.9922 24.3984 79.8268 24.1042 79.582 23.8828C79.3372 23.6615 79.0117 23.5508 78.6055 23.5508C78.181 23.5508 77.8008 23.6667 77.4648 23.8984C77.1289 24.1276 76.8516 24.4349 76.6328 24.8203C76.4141 25.2031 76.2682 25.6224 76.1953 26.0781C76.1224 26.5182 76.1276 26.9206 76.2109 27.2852C76.2969 27.6497 76.4622 27.9414 76.707 28.1602C76.9544 28.3789 77.2813 28.4883 77.6875 28.4883ZM82.9473 29L82.1348 23H82.8652L83.4629 27.9492H83.5137L85.7559 23H86.4941L87.0762 27.9375H87.1309L89.373 23H90.1152L87.3027 29H86.584L85.9746 24.0898H85.9004L83.666 29H82.9473ZM90.2832 29.0586C90.127 29.0586 89.9954 29.0039 89.8887 28.8945C89.7845 28.7852 89.7324 28.6523 89.7324 28.4961C89.7324 28.3398 89.7897 28.2083 89.9043 28.1016C90.0189 27.9948 90.153 27.9414 90.3066 27.9414C90.4603 27.9414 90.5918 27.9961 90.7012 28.1055C90.8105 28.2148 90.8626 28.3451 90.8574 28.4961C90.8548 28.6003 90.8262 28.6953 90.7715 28.7813C90.7194 28.8646 90.6504 28.9323 90.5645 28.9844C90.4811 29.0339 90.3874 29.0586 90.2832 29.0586ZM103.011 23.5H102.284C102.276 23.2266 102.222 22.974 102.12 22.7422C102.019 22.5078 101.877 22.3034 101.694 22.1289C101.512 21.9544 101.295 21.819 101.042 21.7227C100.792 21.6263 100.512 21.5781 100.202 21.5781C99.6917 21.5781 99.2035 21.7122 98.7373 21.9805C98.2712 22.2461 97.8701 22.6367 97.5342 23.1523C97.1982 23.668 96.9691 24.2982 96.8467 25.043C96.7243 25.7773 96.7438 26.3958 96.9053 26.8984C97.0667 27.3984 97.3311 27.7773 97.6982 28.0352C98.068 28.293 98.5016 28.4219 98.999 28.4219C99.3167 28.4219 99.6214 28.3737 99.9131 28.2773C100.205 28.181 100.473 28.0469 100.718 27.875C100.963 27.7005 101.177 27.4961 101.362 27.2617C101.547 27.0273 101.69 26.7734 101.792 26.5H102.526C102.399 26.8672 102.22 27.2096 101.991 27.5273C101.762 27.8424 101.491 28.1185 101.179 28.3555C100.869 28.5924 100.526 28.7773 100.151 28.9102C99.779 29.043 99.3831 29.1094 98.9639 29.1094C98.2816 29.1094 97.7048 28.9388 97.2334 28.5977C96.7646 28.2565 96.4313 27.776 96.2334 27.1562C96.0381 26.5339 96.0107 25.8008 96.1514 24.957C96.2894 24.1289 96.5537 23.4102 96.9443 22.8008C97.3376 22.1914 97.8193 21.7214 98.3896 21.3906C98.96 21.0573 99.5798 20.8906 100.249 20.8906C100.676 20.8906 101.059 20.957 101.397 21.0898C101.736 21.2201 102.024 21.4049 102.261 21.6445C102.5 21.8815 102.684 22.1576 102.812 22.4727C102.939 22.7878 103.006 23.1302 103.011 23.5ZM106.039 29.125C105.513 29.125 105.07 28.9922 104.711 28.7266C104.352 28.4583 104.098 28.0872 103.949 27.6133C103.801 27.1393 103.776 26.5924 103.875 25.9727C103.974 25.3685 104.171 24.8372 104.465 24.3789C104.762 23.918 105.126 23.5599 105.559 23.3047C105.991 23.0469 106.461 22.918 106.969 22.918C107.497 22.918 107.94 23.0521 108.297 23.3203C108.656 23.5885 108.91 23.9596 109.059 24.4336C109.21 24.9076 109.236 25.4557 109.137 26.0781C109.038 26.6797 108.84 27.2096 108.543 27.668C108.246 28.1237 107.882 28.4805 107.449 28.7383C107.02 28.9961 106.549 29.125 106.039 29.125ZM106.047 28.4883C106.474 28.4883 106.854 28.375 107.188 28.1484C107.523 27.9193 107.801 27.6146 108.02 27.2344C108.238 26.8516 108.385 26.431 108.461 25.9727C108.531 25.5352 108.523 25.1328 108.438 24.7656C108.352 24.3984 108.186 24.1042 107.941 23.8828C107.697 23.6615 107.371 23.5508 106.965 23.5508C106.54 23.5508 106.16 23.6667 105.824 23.8984C105.488 24.1276 105.211 24.4349 104.992 24.8203C104.773 25.2031 104.628 25.6224 104.555 26.0781C104.482 26.5182 104.487 26.9206 104.57 27.2852C104.656 27.6497 104.822 27.9414 105.066 28.1602C105.314 28.3789 105.641 28.4883 106.047 28.4883ZM112.202 21L110.874 29H110.179L111.507 21H112.202ZM114.737 21L113.409 29H112.714L114.042 21H114.737ZM117.659 29.125C117.099 29.125 116.637 28.9948 116.272 28.7344C115.908 28.4714 115.653 28.1081 115.507 27.6445C115.361 27.1784 115.339 26.6419 115.44 26.0352C115.542 25.431 115.743 24.8945 116.042 24.4258C116.341 23.9544 116.711 23.5859 117.151 23.3203C117.591 23.0521 118.069 22.918 118.585 22.918C118.91 22.918 119.215 22.9779 119.499 23.0977C119.783 23.2148 120.024 23.3958 120.222 23.6406C120.422 23.8828 120.562 24.1888 120.64 24.5586C120.718 24.9258 120.715 25.3607 120.632 25.8633L120.577 26.207H115.89L115.987 25.5937H119.968C120.033 25.2083 120.015 24.862 119.913 24.5547C119.812 24.2474 119.638 24.0039 119.394 23.8242C119.151 23.6419 118.851 23.5508 118.491 23.5508C118.124 23.5508 117.776 23.6536 117.448 23.8594C117.123 24.0651 116.847 24.3333 116.62 24.6641C116.396 24.9922 116.252 25.3424 116.187 25.7148L116.108 26.1758C116.025 26.6836 116.035 27.1094 116.14 27.4531C116.244 27.7943 116.433 28.0521 116.706 28.2266C116.979 28.401 117.33 28.4883 117.757 28.4883C118.043 28.4883 118.302 28.444 118.534 28.3555C118.766 28.2669 118.968 28.1484 119.14 28C119.312 27.849 119.45 27.6836 119.554 27.5039L120.175 27.7187C120.042 27.9714 119.854 28.2044 119.612 28.418C119.373 28.6315 119.088 28.8034 118.757 28.9336C118.429 29.0612 118.063 29.125 117.659 29.125ZM123.969 29.125C123.427 29.125 122.98 28.9909 122.629 28.7227C122.277 28.4544 122.031 28.0872 121.891 27.6211C121.753 27.1523 121.733 26.6211 121.832 26.0273C121.931 25.4232 122.13 24.888 122.43 24.4219C122.729 23.9531 123.099 23.5859 123.539 23.3203C123.982 23.0521 124.465 22.918 124.988 22.918C125.392 22.918 125.743 22.9961 126.043 23.1523C126.342 23.306 126.574 23.5234 126.738 23.8047C126.902 24.0833 126.98 24.4089 126.973 24.7812H126.27C126.251 24.4349 126.125 24.1432 125.891 23.9062C125.659 23.6693 125.331 23.5508 124.906 23.5508C124.518 23.5508 124.159 23.6549 123.828 23.8633C123.497 24.069 123.217 24.3568 122.988 24.7266C122.762 25.0937 122.609 25.5195 122.531 26.0039C122.448 26.4909 122.456 26.9219 122.555 27.2969C122.654 27.6693 122.831 27.9609 123.086 28.1719C123.344 28.3828 123.669 28.4883 124.063 28.4883C124.331 28.4883 124.583 28.4388 124.82 28.3398C125.057 28.2383 125.267 28.0951 125.449 27.9102C125.632 27.7227 125.771 27.5026 125.867 27.25H126.57C126.453 27.6146 126.268 27.9375 126.016 28.2188C125.766 28.5 125.466 28.7214 125.117 28.8828C124.768 29.0443 124.385 29.125 123.969 29.125ZM131.127 23L131.029 23.6055H128.162L128.264 23H131.127ZM129.393 21.5625H130.092L129.115 27.4336C129.074 27.6836 129.084 27.8802 129.146 28.0234C129.209 28.1641 129.305 28.2643 129.436 28.3242C129.566 28.3815 129.709 28.4102 129.865 28.4102C129.956 28.4102 130.035 28.4049 130.1 28.3945C130.167 28.3815 130.227 28.3685 130.279 28.3555L130.33 28.9844C130.255 29.0104 130.165 29.0339 130.061 29.0547C129.956 29.0781 129.831 29.0898 129.686 29.0898C129.43 29.0898 129.195 29.0339 128.979 28.9219C128.762 28.8099 128.598 28.6432 128.486 28.4219C128.374 28.2005 128.344 27.9258 128.396 27.5977L129.393 21.5625ZM132.339 29.0586C132.183 29.0586 132.051 29.0039 131.944 28.8945C131.84 28.7852 131.788 28.6523 131.788 28.4961C131.788 28.3398 131.845 28.2083 131.96 28.1016C132.075 27.9948 132.209 27.9414 132.362 27.9414C132.516 27.9414 132.647 27.9961 132.757 28.1055C132.866 28.2148 132.918 28.3451 132.913 28.4961C132.91 28.6003 132.882 28.6953 132.827 28.7813C132.775 28.8646 132.706 28.9323 132.62 28.9844C132.537 29.0339 132.443 29.0586 132.339 29.0586ZM145.113 25.043C144.975 25.8685 144.71 26.5859 144.316 27.1953C143.923 27.8047 143.443 28.276 142.875 28.6094C142.307 28.9427 141.69 29.1094 141.023 29.1094C140.339 29.1094 139.76 28.9388 139.289 28.5977C138.82 28.2539 138.488 27.7721 138.293 27.1523C138.098 26.5299 138.069 25.7982 138.207 24.957C138.345 24.1315 138.611 23.4141 139.004 22.8047C139.397 22.1953 139.879 21.724 140.449 21.3906C141.02 21.0573 141.639 20.8906 142.309 20.8906C142.986 20.8906 143.559 21.0612 144.027 21.4023C144.496 21.7435 144.829 22.2253 145.027 22.8477C145.225 23.4674 145.254 24.1992 145.113 25.043ZM144.414 24.957C144.534 24.2435 144.518 23.6354 144.367 23.1328C144.219 22.6302 143.964 22.2461 143.602 21.9805C143.24 21.7122 142.801 21.5781 142.285 21.5781C141.751 21.5781 141.25 21.7161 140.781 21.9922C140.313 22.2656 139.913 22.6615 139.582 23.1797C139.251 23.6953 139.025 24.3164 138.902 25.043C138.785 25.7539 138.801 26.362 138.949 26.8672C139.098 27.3698 139.353 27.7552 139.715 28.0234C140.079 28.2891 140.521 28.4219 141.039 28.4219C141.576 28.4219 142.078 28.2839 142.547 28.0078C143.016 27.7318 143.414 27.3359 143.742 26.8203C144.073 26.3021 144.297 25.681 144.414 24.957ZM146.079 29L147.079 23H147.755L147.599 23.9219H147.649C147.816 23.6198 148.065 23.3763 148.396 23.1914C148.729 23.0039 149.084 22.9102 149.462 22.9102C149.519 22.9102 149.583 22.9115 149.653 22.9141C149.724 22.9141 149.782 22.9167 149.829 22.9219L149.708 23.6289C149.677 23.6237 149.622 23.6159 149.544 23.6055C149.468 23.5951 149.384 23.5898 149.29 23.5898C148.978 23.5898 148.688 23.6562 148.423 23.7891C148.16 23.9193 147.938 24.1003 147.759 24.332C147.582 24.5638 147.467 24.8281 147.415 25.125L146.774 29H146.079ZM151.742 31.375C151.333 31.375 150.983 31.3216 150.691 31.2148C150.4 31.1107 150.163 30.9674 149.98 30.7852C149.801 30.6029 149.669 30.3984 149.586 30.1719L150.219 29.8008C150.276 29.9518 150.363 30.1003 150.48 30.2461C150.598 30.3919 150.763 30.5117 150.977 30.6055C151.19 30.7018 151.47 30.75 151.816 30.75C152.345 30.75 152.799 30.6159 153.18 30.3477C153.56 30.082 153.797 29.6706 153.891 29.1133L154.102 27.7617H154.039C153.932 27.944 153.789 28.1263 153.609 28.3086C153.43 28.4883 153.207 28.638 152.941 28.7578C152.678 28.8776 152.367 28.9375 152.008 28.9375C151.529 28.9375 151.122 28.819 150.789 28.582C150.456 28.3451 150.22 28.0065 150.082 27.5664C149.944 27.1237 149.927 26.5964 150.031 25.9844C150.13 25.3776 150.32 24.8437 150.602 24.3828C150.885 23.9219 151.234 23.5625 151.648 23.3047C152.065 23.0469 152.521 22.918 153.016 22.918C153.383 22.918 153.677 22.9831 153.898 23.1133C154.12 23.2409 154.288 23.3997 154.402 23.5898C154.52 23.7799 154.604 23.9648 154.656 24.1445H154.727L154.914 23H155.594L154.578 29.1563C154.492 29.6641 154.315 30.082 154.047 30.4102C153.779 30.7383 153.445 30.9805 153.047 31.1367C152.651 31.2956 152.216 31.375 151.742 31.375ZM152.164 28.3008C152.549 28.3008 152.896 28.2083 153.203 28.0234C153.513 27.8359 153.772 27.569 153.98 27.2227C154.191 26.8737 154.336 26.457 154.414 25.9727C154.492 25.5039 154.488 25.0885 154.402 24.7266C154.319 24.362 154.156 24.0755 153.914 23.8672C153.674 23.6562 153.359 23.5508 152.969 23.5508C152.565 23.5508 152.208 23.6589 151.898 23.875C151.591 24.0911 151.337 24.3828 151.137 24.75C150.939 25.1146 150.802 25.5221 150.727 25.9727C150.654 26.431 150.656 26.8359 150.734 27.1875C150.815 27.5365 150.974 27.8099 151.211 28.0078C151.448 28.2031 151.766 28.3008 152.164 28.3008ZM158.095 29.1367C157.733 29.1367 157.414 29.0664 157.138 28.9258C156.862 28.7826 156.656 28.5768 156.521 28.3086C156.388 28.0378 156.351 27.7096 156.411 27.3242C156.463 27.0273 156.562 26.7773 156.708 26.5742C156.856 26.3711 157.044 26.2044 157.271 26.0742C157.497 25.9414 157.757 25.8372 158.052 25.7617C158.346 25.6862 158.666 25.6289 159.013 25.5898C159.351 25.5482 159.64 25.5117 159.88 25.4805C160.119 25.4492 160.306 25.3997 160.438 25.332C160.571 25.2643 160.651 25.1549 160.677 25.0039L160.7 24.8633C160.768 24.4544 160.705 24.1328 160.513 23.8984C160.32 23.6615 159.997 23.543 159.544 23.543C159.112 23.543 158.737 23.6393 158.419 23.832C158.104 24.0221 157.869 24.2448 157.716 24.5L157.099 24.2617C157.286 23.9336 157.517 23.6719 157.79 23.4766C158.063 23.2786 158.356 23.1367 158.669 23.0508C158.981 22.9622 159.29 22.918 159.595 22.918C159.824 22.918 160.057 22.9479 160.294 23.0078C160.531 23.0677 160.743 23.1719 160.931 23.3203C161.121 23.4661 161.26 23.6706 161.349 23.9336C161.44 24.194 161.453 24.5247 161.388 24.9258L160.708 29H160.013L160.173 28.0508H160.13C160.021 28.2279 159.869 28.3997 159.677 28.5664C159.487 28.7331 159.259 28.8698 158.993 28.9766C158.728 29.0833 158.428 29.1367 158.095 29.1367ZM158.271 28.5C158.64 28.5 158.975 28.418 159.274 28.2539C159.576 28.0898 159.824 27.8724 160.017 27.6016C160.212 27.3281 160.337 27.0273 160.392 26.6992L160.536 25.832C160.479 25.8815 160.385 25.9258 160.255 25.9648C160.127 26.0039 159.983 26.0391 159.821 26.0703C159.662 26.099 159.502 26.1237 159.341 26.1445C159.182 26.1654 159.041 26.1836 158.919 26.1992C158.573 26.2409 158.271 26.306 158.013 26.3945C157.757 26.4831 157.553 26.6055 157.399 26.7617C157.246 26.9154 157.149 27.1133 157.11 27.3555C157.05 27.7201 157.13 28.0026 157.349 28.2031C157.57 28.401 157.877 28.5 158.271 28.5ZM163.874 25.25L163.253 29H162.558L163.558 23H164.233L164.077 23.9414H164.14C164.327 23.6341 164.586 23.388 164.917 23.2031C165.25 23.0156 165.637 22.9219 166.077 22.9219C166.478 22.9219 166.817 23.0065 167.093 23.1758C167.371 23.3424 167.569 23.5885 167.687 23.9141C167.806 24.2396 167.827 24.6393 167.749 25.1133L167.097 29H166.401L167.042 25.1562C167.123 24.6667 167.051 24.2786 166.827 23.9922C166.606 23.7031 166.263 23.5586 165.8 23.5586C165.485 23.5586 165.192 23.6263 164.921 23.7617C164.653 23.8971 164.426 24.0924 164.241 24.3477C164.056 24.6003 163.934 24.901 163.874 25.25ZM168.936 29L169.936 23H170.635L169.635 29H168.936ZM170.537 21.957C170.391 21.957 170.268 21.9076 170.166 21.8086C170.067 21.7096 170.019 21.5898 170.021 21.4492C170.027 21.3164 170.08 21.2018 170.182 21.1055C170.286 21.0065 170.408 20.957 170.549 20.957C170.695 20.957 170.818 21.0078 170.92 21.1094C171.021 21.2083 171.07 21.3281 171.064 21.4687C171.062 21.6016 171.008 21.7161 170.904 21.8125C170.8 21.9089 170.678 21.957 170.537 21.957ZM171.286 29L171.384 28.4492L175.63 23.707L175.638 23.6562H172.325L172.435 23H176.649L176.552 23.5742L172.372 28.293L172.364 28.3437H175.884L175.774 29H171.286ZM179.545 29.125C178.985 29.125 178.523 28.9948 178.158 28.7344C177.794 28.4714 177.538 28.1081 177.393 27.6445C177.247 27.1784 177.225 26.6419 177.326 26.0352C177.428 25.431 177.628 24.8945 177.928 24.4258C178.227 23.9544 178.597 23.5859 179.037 23.3203C179.477 23.0521 179.955 22.918 180.471 22.918C180.796 22.918 181.101 22.9779 181.385 23.0977C181.669 23.2148 181.91 23.3958 182.107 23.6406C182.308 23.8828 182.447 24.1888 182.525 24.5586C182.604 24.9258 182.601 25.3607 182.518 25.8633L182.463 26.207H177.775L177.873 25.5937H181.854C181.919 25.2083 181.9 24.862 181.799 24.5547C181.697 24.2474 181.524 24.0039 181.279 23.8242C181.037 23.6419 180.736 23.5508 180.377 23.5508C180.01 23.5508 179.662 23.6536 179.334 23.8594C179.008 24.0651 178.732 24.3333 178.506 24.6641C178.282 24.9922 178.137 25.3424 178.072 25.7148L177.994 26.1758C177.911 26.6836 177.921 27.1094 178.025 27.4531C178.13 27.7943 178.318 28.0521 178.592 28.2266C178.865 28.401 179.215 28.4883 179.643 28.4883C179.929 28.4883 180.188 28.444 180.42 28.3555C180.652 28.2669 180.854 28.1484 181.025 28C181.197 27.849 181.335 27.6836 181.439 27.5039L182.061 27.7187C181.928 27.9714 181.74 28.2044 181.498 28.418C181.258 28.6315 180.973 28.8034 180.643 28.9336C180.314 29.0612 179.949 29.125 179.545 29.125ZM184.159 29.0586C184.003 29.0586 183.871 29.0039 183.765 28.8945C183.66 28.7852 183.608 28.6523 183.608 28.4961C183.608 28.3398 183.666 28.2083 183.78 28.1016C183.895 27.9948 184.029 27.9414 184.183 27.9414C184.336 27.9414 184.468 27.9961 184.577 28.1055C184.687 28.2148 184.739 28.3451 184.733 28.4961C184.731 28.6003 184.702 28.6953 184.647 28.7813C184.595 28.8646 184.526 28.9323 184.44 28.9844C184.357 29.0339 184.263 29.0586 184.159 29.0586Z" fill="black"/>
<path d="M64.3242 43.625V33.625H66.3242V34.2187H64.9883V43.0312H66.3242V43.625H64.3242ZM70.2002 36V36.6055H67.251V36H70.2002ZM68.1729 42V35.1211C68.1729 34.7982 68.2471 34.526 68.3955 34.3047C68.5465 34.0833 68.7432 33.9154 68.9854 33.8008C69.2275 33.6862 69.484 33.6289 69.7549 33.6289C69.9372 33.6289 70.0882 33.6445 70.208 33.6758C70.3304 33.7044 70.4268 33.7331 70.4971 33.7617L70.2939 34.3711C70.2419 34.3555 70.1781 34.3372 70.1025 34.3164C70.027 34.2956 69.932 34.2852 69.8174 34.2852C69.5153 34.2852 69.2822 34.3698 69.1182 34.5391C68.9541 34.7083 68.8721 34.9505 68.8721 35.2656L68.8682 42H68.1729ZM73.6729 42.125C73.1546 42.125 72.6963 41.9935 72.2979 41.7305C71.902 41.4674 71.5921 41.1042 71.3682 40.6406C71.1442 40.1745 71.0322 39.6367 71.0322 39.0273C71.0322 38.4128 71.1442 37.8724 71.3682 37.4062C71.5921 36.9375 71.902 36.5729 72.2979 36.3125C72.6963 36.0495 73.1546 35.918 73.6729 35.918C74.1911 35.918 74.6481 36.0495 75.0439 36.3125C75.4398 36.5755 75.7497 36.9401 75.9736 37.4062C76.2002 37.8724 76.3135 38.4128 76.3135 39.0273C76.3135 39.6367 76.2015 40.1745 75.9775 40.6406C75.7536 41.1042 75.4424 41.4674 75.0439 41.7305C74.6481 41.9935 74.1911 42.125 73.6729 42.125ZM73.6729 41.4883C74.0895 41.4883 74.4424 41.3763 74.7314 41.1523C75.0205 40.9284 75.2393 40.6302 75.3877 40.2578C75.5387 39.8854 75.6143 39.4753 75.6143 39.0273C75.6143 38.5794 75.5387 38.168 75.3877 37.793C75.2393 37.418 75.0205 37.1172 74.7314 36.8906C74.4424 36.6641 74.0895 36.5508 73.6729 36.5508C73.2588 36.5508 72.9059 36.6641 72.6143 36.8906C72.3252 37.1172 72.1051 37.418 71.9541 37.793C71.8057 38.168 71.7314 38.5794 71.7314 39.0273C71.7314 39.4753 71.8057 39.8854 71.9541 40.2578C72.1051 40.6302 72.3252 40.9284 72.6143 41.1523C72.9033 41.3763 73.2562 41.4883 73.6729 41.4883ZM77.8398 42V36H78.5156V36.9219H78.5664C78.6862 36.6198 78.8945 36.3763 79.1914 36.1914C79.4909 36.0039 79.8294 35.9102 80.207 35.9102C80.2643 35.9102 80.3281 35.9115 80.3984 35.9141C80.4688 35.9167 80.5273 35.9193 80.5742 35.9219V36.6289C80.543 36.6237 80.4883 36.6159 80.4102 36.6055C80.332 36.5951 80.2474 36.5898 80.1563 36.5898C79.8438 36.5898 79.5651 36.6562 79.3203 36.7891C79.0781 36.9193 78.8867 37.1003 78.7461 37.332C78.6055 37.5638 78.5352 37.8281 78.5352 38.125V42H77.8398ZM87.3232 36V36.6055H84.374V36H87.3232ZM85.2959 42V35.1211C85.2959 34.7982 85.3701 34.526 85.5186 34.3047C85.6696 34.0833 85.8662 33.9154 86.1084 33.8008C86.3506 33.6862 86.6071 33.6289 86.8779 33.6289C87.0602 33.6289 87.2113 33.6445 87.3311 33.6758C87.4535 33.7044 87.5498 33.7331 87.6201 33.7617L87.417 34.3711C87.3649 34.3555 87.3011 34.3372 87.2256 34.3164C87.1501 34.2956 87.055 34.2852 86.9404 34.2852C86.6383 34.2852 86.4053 34.3698 86.2412 34.5391C86.0771 34.7083 85.9951 34.9505 85.9951 35.2656L85.9912 42H85.2959ZM88.7109 42V36H89.3867V36.9219H89.4375C89.5573 36.6198 89.7656 36.3763 90.0625 36.1914C90.362 36.0039 90.7005 35.9102 91.0781 35.9102C91.1354 35.9102 91.1992 35.9115 91.2695 35.9141C91.3398 35.9167 91.3984 35.9193 91.4453 35.9219V36.6289C91.4141 36.6237 91.3594 36.6159 91.2813 36.6055C91.2031 36.5951 91.1185 36.5898 91.0273 36.5898C90.7148 36.5898 90.4362 36.6562 90.1914 36.7891C89.9492 36.9193 89.7578 37.1003 89.6172 37.332C89.4766 37.5638 89.4063 37.8281 89.4063 38.125V42H88.7109ZM94.875 42.125C94.3151 42.125 93.8307 41.9948 93.4219 41.7344C93.013 41.4714 92.6966 41.1081 92.4727 40.6445C92.2513 40.1784 92.1406 39.6419 92.1406 39.0352C92.1406 38.431 92.2513 37.8945 92.4727 37.4258C92.6966 36.9544 93.0052 36.5859 93.3984 36.3203C93.7943 36.0521 94.2513 35.918 94.7695 35.918C95.0951 35.918 95.4089 35.9779 95.7109 36.0977C96.013 36.2148 96.2839 36.3958 96.5234 36.6406C96.7656 36.8828 96.957 37.1888 97.0977 37.5586C97.2383 37.9258 97.3086 38.3607 97.3086 38.8633V39.207H92.6211V38.5937H96.5977C96.5977 38.2083 96.5195 37.862 96.3633 37.5547C96.2096 37.2448 95.9948 37 95.7188 36.8203C95.4453 36.6406 95.1289 36.5508 94.7695 36.5508C94.3893 36.5508 94.0547 36.6523 93.7656 36.8555C93.4766 37.0586 93.25 37.3268 93.0859 37.6602C92.9245 37.9935 92.8424 38.3581 92.8398 38.7539V39.1211C92.8398 39.5977 92.9219 40.0143 93.0859 40.3711C93.2526 40.7253 93.4883 41 93.793 41.1953C94.0977 41.3906 94.4583 41.4883 94.875 41.4883C95.1589 41.4883 95.4076 41.444 95.6211 41.3555C95.8372 41.2669 96.0182 41.1484 96.1641 41C96.3125 40.849 96.4245 40.6836 96.5 40.5039L97.1602 40.7187C97.069 40.9714 96.9193 41.2044 96.7109 41.418C96.5052 41.6315 96.2474 41.8034 95.9375 41.9336C95.6302 42.0612 95.276 42.125 94.875 42.125ZM101.267 42.125C100.707 42.125 100.222 41.9948 99.8135 41.7344C99.4046 41.4714 99.0882 41.1081 98.8643 40.6445C98.6429 40.1784 98.5322 39.6419 98.5322 39.0352C98.5322 38.431 98.6429 37.8945 98.8643 37.4258C99.0882 36.9544 99.3968 36.5859 99.79 36.3203C100.186 36.0521 100.643 35.918 101.161 35.918C101.487 35.918 101.8 35.9779 102.103 36.0977C102.405 36.2148 102.675 36.3958 102.915 36.6406C103.157 36.8828 103.349 37.1888 103.489 37.5586C103.63 37.9258 103.7 38.3607 103.7 38.8633V39.207H99.0127V38.5937H102.989C102.989 38.2083 102.911 37.862 102.755 37.5547C102.601 37.2448 102.386 37 102.11 36.8203C101.837 36.6406 101.521 36.5508 101.161 36.5508C100.781 36.5508 100.446 36.6523 100.157 36.8555C99.8682 37.0586 99.6416 37.3268 99.4775 37.6602C99.3161 37.9935 99.234 38.3581 99.2314 38.7539V39.1211C99.2314 39.5977 99.3135 40.0143 99.4775 40.3711C99.6442 40.7253 99.8799 41 100.185 41.1953C100.489 41.3906 100.85 41.4883 101.267 41.4883C101.55 41.4883 101.799 41.444 102.013 41.3555C102.229 41.2669 102.41 41.1484 102.556 41C102.704 40.849 102.816 40.6836 102.892 40.5039L103.552 40.7187C103.461 40.9714 103.311 41.2044 103.103 41.418C102.897 41.6315 102.639 41.8034 102.329 41.9336C102.022 42.0612 101.668 42.125 101.267 42.125ZM106.803 33.625V43.625H104.803V43.0312H106.139V34.2187H104.803V33.625H106.803Z" fill="black"/>
<path d="M48.9091 40.3565C48.6392 40.3885 48.4297 40.5181 48.2805 40.7454C48.1314 40.9727 48.0568 41.2514 48.0568 41.5817C48.0568 41.8232 48.0959 42.0344 48.174 42.2156C48.2521 42.3949 48.3596 42.5352 48.4963 42.6364C48.633 42.7358 48.7884 42.7855 48.9624 42.7855C49.108 42.7855 49.2331 42.7509 49.3379 42.6816C49.4409 42.6106 49.527 42.5201 49.5962 42.41C49.6637 42.2999 49.7196 42.1845 49.764 42.0637C49.8066 41.943 49.8413 41.832 49.8679 41.7308L50.017 41.1768C50.0543 41.0348 50.1058 40.8768 50.1715 40.7028C50.2372 40.527 50.3269 40.3592 50.4405 40.1994C50.5524 40.0378 50.6962 39.9047 50.872 39.7999C51.0478 39.6951 51.2635 39.6428 51.5192 39.6428C51.8139 39.6428 52.0803 39.72 52.3182 39.8745C52.5561 40.0272 52.7452 40.2509 52.8855 40.5456C53.0257 40.8386 53.0959 41.1946 53.0959 41.6136C53.0959 42.0043 53.0328 42.3425 52.9068 42.6284C52.7807 42.9125 52.6049 43.1362 52.3794 43.2995C52.1539 43.4611 51.892 43.5526 51.5937 43.5739L51.5937 42.892C51.7997 42.8743 51.9702 42.805 52.1051 42.6843C52.2383 42.5618 52.3377 42.4073 52.4034 42.2209C52.4673 42.0327 52.4993 41.8303 52.4993 41.6136C52.4993 41.3615 52.4585 41.1351 52.3768 40.9345C52.2933 40.7338 52.1779 40.5749 52.0305 40.4577C51.8814 40.3406 51.7074 40.282 51.5085 40.282C51.3274 40.282 51.18 40.3326 51.0664 40.4338C50.9528 40.535 50.8604 40.6681 50.7894 40.8333C50.7184 40.9984 50.6562 41.1768 50.603 41.3686L50.4112 42.0398C50.2887 42.4659 50.1138 42.8033 49.8865 43.0518C49.6593 43.3004 49.3619 43.4247 48.9943 43.4247C48.6889 43.4247 48.4226 43.3422 48.1953 43.177C47.9663 43.0101 47.7887 42.7864 47.6626 42.5059C47.5348 42.2235 47.4709 41.9084 47.4709 41.5604C47.4709 41.2088 47.5339 40.8963 47.66 40.6229C47.7843 40.3494 47.9547 40.1328 48.1713 39.973C48.388 39.8114 48.6339 39.7262 48.9091 39.7173L48.9091 40.3565ZM53 38.642L48.9091 38.642L48.9091 38.0134L53 38.0134L53 38.642ZM48.2273 38.3224C48.2273 38.4449 48.1855 38.5506 48.1021 38.6393C48.0186 38.7263 47.9183 38.7698 47.8011 38.7698C47.6839 38.7698 47.5836 38.7263 47.5002 38.6393C47.4167 38.5506 47.375 38.4449 47.375 38.3224C47.375 38.1999 47.4167 38.0951 47.5002 38.0081C47.5836 37.9193 47.6839 37.875 47.8011 37.875C47.9183 37.875 48.0186 37.9193 48.1021 38.0081C48.1855 38.0951 48.2273 38.1999 48.2273 38.3224ZM50.5391 36.2337L53 36.2337L53 36.8622L48.9091 36.8622L48.9091 36.255L49.5483 36.255L49.5483 36.2017C49.3406 36.1058 49.1737 35.9602 49.0476 35.7649C48.9197 35.5696 48.8558 35.3175 48.8558 35.0085C48.8558 34.7315 48.9126 34.4892 49.0263 34.2814C49.1381 34.0737 49.3086 33.9121 49.5376 33.7967C49.7649 33.6813 50.0526 33.6236 50.4006 33.6236L53 33.6236L53 34.2521L50.4432 34.2521C50.1218 34.2521 49.8714 34.3356 49.6921 34.5025C49.511 34.6694 49.4205 34.8984 49.4205 35.1896C49.4205 35.3903 49.464 35.5696 49.551 35.7276C49.638 35.8839 49.7649 36.0073 49.9318 36.0978C50.0987 36.1884 50.3011 36.2337 50.5391 36.2337ZM53.0852 30.8131C53.0852 31.1966 52.9947 31.5269 52.8136 31.8038C52.6325 32.0808 52.383 32.2939 52.0652 32.443C51.7473 32.5922 51.3842 32.6668 50.9759 32.6668C50.5604 32.6668 50.1937 32.5904 49.8759 32.4377C49.5563 32.2832 49.3068 32.0684 49.1275 31.7932C48.9464 31.5162 48.8558 31.193 48.8558 30.8237C48.8558 30.5361 48.9091 30.2769 49.0156 30.046C49.1222 29.8152 49.2713 29.6261 49.4631 29.4787C49.6548 29.3314 49.8786 29.2399 50.1342 29.2044L50.1342 29.833C49.9478 29.8809 49.7827 29.9874 49.6388 30.1526C49.4933 30.3159 49.4205 30.5361 49.4205 30.8131C49.4205 31.0581 49.4844 31.2729 49.6122 31.4576C49.7383 31.6405 49.9167 31.7834 50.1475 31.8864C50.3766 31.9876 50.6456 32.0382 50.9545 32.0382C51.2706 32.0382 51.5458 31.9885 51.7802 31.8891C52.0146 31.7879 52.1966 31.6458 52.3262 31.4629C52.4558 31.2783 52.5206 31.0617 52.5206 30.8131C52.5206 30.6497 52.4922 30.5015 52.4354 30.3683C52.3786 30.2351 52.2969 30.1224 52.1903 30.0301C52.0838 29.9377 51.956 29.872 51.8068 29.833L51.8068 29.2044C52.0483 29.2399 52.2658 29.3278 52.4593 29.4681C52.6511 29.6066 52.8038 29.7903 52.9174 30.0194C53.0293 30.2467 53.0852 30.5112 53.0852 30.8131ZM53.0852 26.5704C53.0852 26.9645 52.9982 27.3046 52.8242 27.5904C52.6484 27.8745 52.4034 28.0938 52.0891 28.2483C51.7731 28.401 51.4055 28.4773 50.9865 28.4773C50.5675 28.4773 50.1982 28.401 49.8786 28.2483C49.5572 28.0938 49.3068 27.879 49.1275 27.6037C48.9464 27.3267 48.8558 27.0036 48.8558 26.6343C48.8558 26.4212 48.8913 26.2108 48.9624 26.0031C49.0334 25.7953 49.1488 25.6062 49.3086 25.4358C49.4666 25.2653 49.6761 25.1295 49.9371 25.0283C50.1982 24.9271 50.5195 24.8765 50.9013 24.8765L51.1676 24.8765L51.1676 28.0299L50.6243 28.0299L50.6243 25.5157C50.3935 25.5157 50.1875 25.5618 50.0064 25.6542C49.8253 25.7447 49.6823 25.8743 49.5776 26.043C49.4728 26.2099 49.4205 26.407 49.4205 26.6343C49.4205 26.8846 49.4826 27.1013 49.6069 27.2841C49.7294 27.4652 49.8892 27.6046 50.0863 27.7023C50.2834 27.7999 50.4947 27.8488 50.7202 27.8488L51.0824 27.8488C51.3913 27.8488 51.6532 27.7955 51.8681 27.689C52.0811 27.5807 52.2436 27.4306 52.3555 27.2389C52.4656 27.0471 52.5206 26.8243 52.5206 26.5704C52.5206 26.4052 52.4975 26.2561 52.4513 26.1229C52.4034 25.988 52.3324 25.8717 52.2383 25.774C52.1424 25.6764 52.0234 25.6009 51.8814 25.5476L52.0518 24.9404C52.2578 25.0043 52.4389 25.1117 52.5952 25.2627C52.7496 25.4136 52.8704 25.6 52.9574 25.822C53.0426 26.0439 53.0852 26.2934 53.0852 26.5704ZM53 21.8216L52.5206 21.8216L50.5497 20.0212C50.3189 19.8099 50.1183 19.6359 49.9478 19.4992C49.7756 19.3624 49.614 19.2612 49.4631 19.1955C49.3104 19.1281 49.1506 19.0943 48.9837 19.0943C48.7919 19.0943 48.6259 19.1405 48.4856 19.2328C48.3453 19.3234 48.237 19.4477 48.1607 19.6057C48.0843 19.7637 48.0462 19.9413 48.0462 20.1384C48.0462 20.3479 48.0897 20.5308 48.1767 20.687C48.2619 20.8415 48.3817 20.9613 48.5362 21.0466C48.6907 21.13 48.8718 21.1717 49.0795 21.1717L49.0795 21.8003C48.7599 21.8003 48.4794 21.7266 48.2379 21.5792C47.9964 21.4319 47.8082 21.2312 47.6733 20.9773C47.5384 20.7216 47.4709 20.4349 47.4709 20.1171C47.4709 19.7975 47.5384 19.5142 47.6733 19.2674C47.8082 19.0206 47.9902 18.8271 48.2193 18.6868C48.4483 18.5466 48.7031 18.4764 48.9837 18.4764C49.1843 18.4764 49.3805 18.5128 49.5723 18.5856C49.7623 18.6566 49.9744 18.7809 50.2088 18.9585C50.4414 19.1343 50.7255 19.3784 51.0611 19.6909L52.3714 20.9161L52.4141 20.9161L52.4141 18.3805L53 18.3805L53 21.8216ZM53.0746 15.5015C53.0746 15.9027 52.9654 16.2445 52.747 16.5269C52.5268 16.8092 52.2081 17.0249 51.7908 17.174C51.3718 17.3232 50.8658 17.3978 50.2727 17.3978C49.6832 17.3978 49.1799 17.3232 48.7626 17.174C48.3436 17.0231 48.024 16.8065 47.8038 16.5242C47.5819 16.2401 47.4709 15.8992 47.4709 15.5015C47.4709 15.1037 47.5819 14.7637 47.8038 14.4814C48.024 14.1973 48.3436 13.9807 48.7626 13.8315C49.1799 13.6806 49.6832 13.6052 50.2727 13.6052C50.8658 13.6052 51.3718 13.6797 51.7908 13.8289C52.2081 13.978 52.5268 14.1938 52.747 14.4761C52.9654 14.7584 53.0746 15.1002 53.0746 15.5015ZM52.4886 15.5015C52.4886 15.1037 52.2969 14.7948 51.9134 14.5746C51.5298 14.3544 50.983 14.2444 50.2727 14.2444C49.8004 14.2444 49.3983 14.295 49.0662 14.3962C48.7342 14.4956 48.4812 14.6394 48.3072 14.8276C48.1332 15.0141 48.0462 15.2387 48.0462 15.5015C48.0462 15.8956 48.2406 16.2037 48.6294 16.4256C49.0165 16.6476 49.5643 16.7586 50.2727 16.7586C50.745 16.7586 51.1463 16.7089 51.4766 16.6094C51.8068 16.51 52.0581 16.3671 52.2303 16.1806C52.4025 15.9924 52.4886 15.766 52.4886 15.5015ZM53 12.5931L52.5206 12.5931L50.5497 10.7927C50.3189 10.5814 50.1183 10.4074 49.9478 10.2706C49.7756 10.1339 49.614 10.0327 49.4631 9.96702C49.3104 9.89955 49.1506 9.86581 48.9837 9.86581C48.7919 9.86581 48.6259 9.91198 48.4856 10.0043C48.3453 10.0949 48.237 10.2191 48.1607 10.3772C48.0843 10.5352 48.0462 10.7128 48.0462 10.9098C48.0462 11.1194 48.0897 11.3022 48.1767 11.4585C48.2619 11.613 48.3817 11.7328 48.5362 11.818C48.6907 11.9015 48.8718 11.9432 49.0795 11.9432L49.0795 12.5718C48.7599 12.5718 48.4794 12.4981 48.2379 12.3507C47.9964 12.2033 47.8082 12.0027 47.6733 11.7488C47.5384 11.4931 47.4709 11.2064 47.4709 10.8885C47.4709 10.5689 47.5384 10.2857 47.6733 10.0389C47.8082 9.79213 47.9902 9.59859 48.2193 9.45832C48.4483 9.31805 48.7031 9.24791 48.9837 9.24791C49.1843 9.24791 49.3805 9.28431 49.5723 9.35711C49.7622 9.42813 49.9744 9.55242 50.2088 9.72998C50.4414 9.90576 50.7255 10.1499 51.0611 10.4624L52.3714 11.6875L52.4141 11.6875L52.4141 9.15203L53 9.15203L53 12.5931ZM53 8.05207L52.5206 8.05207L50.5497 6.25164C50.3189 6.04035 50.1183 5.86634 49.9478 5.72963C49.7756 5.59291 49.614 5.4917 49.4631 5.426C49.3104 5.35853 49.1506 5.3248 48.9837 5.3248C48.7919 5.3248 48.6259 5.37096 48.4856 5.46329C48.3453 5.55384 48.237 5.67813 48.1607 5.83616C48.0843 5.99418 48.0462 6.17174 48.0462 6.36883C48.0462 6.57835 48.0897 6.76123 48.1767 6.91748C48.2619 7.07195 48.3817 7.19181 48.5362 7.27703C48.6907 7.36048 48.8718 7.40221 49.0795 7.40221L49.0795 8.03076C48.7599 8.03076 48.4794 7.95708 48.2379 7.8097C47.9964 7.66233 47.8082 7.46169 47.6733 7.20779C47.5384 6.9521 47.4709 6.66535 47.4709 6.34752C47.4709 6.02792 47.5384 5.74472 47.6733 5.49791C47.8082 5.25111 47.9902 5.05757 48.2193 4.9173C48.4483 4.77703 48.7031 4.7069 48.9837 4.7069C49.1843 4.7069 49.3805 4.7433 49.5723 4.8161C49.7622 4.88712 49.9744 5.01141 50.2088 5.18896C50.4414 5.36475 50.7255 5.60889 51.0611 5.92139L52.3714 7.14653L52.4141 7.14653L52.4141 4.61102L53 4.61102L53 8.05207Z" fill="black"/>
</svg>
